<svg xmlns="http://www.w3.org/2000/svg" width="242" height="30" fill="none">
  <path fill="#1D4AFF"
    d="M10.9 16.8a1 1 0 0 1-1.8 0L8.2 15a1 1 0 0 1 0-.9l.9-1.7a1 1 0 0 1 1.8 0l.9 1.7v1l-1 1.7Zm0 10a1 1 0 0 1-1.8 0L8.2 25a1 1 0 0 1 0-.9l.9-1.7a1 1 0 0 1 1.8 0l.9 1.7v1l-1 1.7Z" />
  <path fill="#F9BD2B"
    d="M0 23a1 1 0 0 1 1.7-.7l4.6 4.6a1 1 0 0 1-.7 1.7H1a1 1 0 0 1-1-1V23Zm0-4.8c0 .2.1.5.3.7l9.4 9.4c.2.2.4.3.7.3h5.2a1 1 0 0 0 .7-1.7L1.7 12.3A1 1 0 0 0 0 13v5.2Zm0-10c0 .2.1.5.3.7l19.4 19.4c.2.2.4.3.7.3h5.2a1 1 0 0 0 .7-1.7L1.7 2.3A1 1 0 0 0 0 3v5.2Zm10 0c0 .2.1.5.3.7l18 18a1 1 0 0 0 1.7-.7V21a1 1 0 0 0-.3-.7l-18-18A1 1 0 0 0 10 3v5.2Zm11.7-6A1 1 0 0 0 20 3v5.2c0 .2.1.5.3.7l8 8a1 1 0 0 0 1.7-.7V11a1 1 0 0 0-.3-.7l-8-8Z" />
  <path fill="#000"
    d="m42.5 23.1-9.4-9.4a1 1 0 0 0-1.7.7v13.2c0 .5.5 1 1 1H47c.5 0 1-.5 1-1v-1.2c0-.6-.5-1-1-1-1.7-.3-3.3-1-4.5-2.3Zm-6.3 2.3a1.6 1.6 0 1 1 0-3.2 1.6 1.6 0 0 1 0 3.2Z" />
  <path fill="#1D4AFF"
    d="M0 27.6c0 .5.4 1 1 1h4.6a1 1 0 0 0 .7-1.7l-4.6-4.6A1 1 0 0 0 0 23v4.6Zm10-17L1.7 2.3A1 1 0 0 0 0 3v5.2c0 .2.1.5.3.7l9.7 9.7v-8Zm-8.3 1.7A1 1 0 0 0 0 13v5.2c0 .2.1.5.3.7l9.7 9.7v-8l-8.3-8.3Z" />
  <path fill="#F54E00"
    d="M20 11a1 1 0 0 0-.3-.7l-8-8A1 1 0 0 0 10 3v5.2c0 .2.1.5.3.7l9.7 9.7V11ZM10 28.6h5.6a1 1 0 0 0 .7-1.7L10 20.6v8Zm0-18v7.6c0 .2.1.5.3.7l9.7 9.7V21a1 1 0 0 0-.3-.7L10 10.6Z" />
  <path fill="#000"
    d="M59.6 24.6h4.2v-6.8h3.4c3.8 0 6.2-2.3 6.2-5.7 0-3.5-2.4-5.7-6.2-5.7h-7.6v18.2Zm4.2-10.3V9.9h3c1.5 0 2.5.8 2.5 2.2 0 1.3-1 2.2-2.5 2.2h-3Zm17 10.5c4 0 7-2.9 7-6.8s-3-6.7-7-6.7-7 2.8-7 6.7c0 4 3 6.8 7 6.8ZM77.7 18c0-2 1.2-3.5 3.1-3.5 1.9 0 3.1 1.5 3.1 3.5 0 2.1-1.2 3.5-3 3.5-2 0-3.2-1.4-3.2-3.5Zm16.6 6.8c3 0 5.1-2 5.1-4.2 0-5.3-7-3.6-7-5.7 0-.5.6-.9 1.5-.9.8 0 2 .6 2.2 1.7l3.1-1.2c-.6-2-2.8-3.2-5.5-3.2-2.9 0-4.7 1.7-4.7 3.7 0 5 7 3.6 7 5.7 0 .7-.7 1.2-1.7 1.2-1.5 0-2.5-1-2.8-2.2l-3 1.2a6 6 0 0 0 5.8 3.9Zm15-.3-.2-3.3-1.5.3c-1 0-1.6-.7-1.6-1.9v-5h3.2v-3.1H106V7.7h-3.8v3.8h-2v3.2h2V20c0 3.2 2.2 4.7 5 4.7.8 0 1.5-.1 2.1-.3Zm13.4-18.1v7h-7.3v-7h-4v18.2h4V17h7.3v7.6h4V6.4h-4Zm13.2 18.4c4 0 7-2.9 7-6.8s-3-6.7-7-6.7-7 2.8-7 6.7c0 4 3 6.8 7 6.8Zm-3.1-6.8c0-2 1.2-3.5 3.1-3.5 1.9 0 3.1 1.5 3.1 3.5 0 2.1-1.2 3.5-3 3.5-2 0-3.2-1.4-3.2-3.5Zm17.4 6.2c1.4 0 2.7-.5 3.4-1.4v1.3c0 1.4-1.2 2.4-3 2.4-1.3 0-2.4-.6-2.6-1.7l-3.4.6c.4 2.5 3 4.1 6 4.1 4 0 6.7-2.3 6.7-5.8V11.5h-3.7v1.1c-.7-.8-2-1.3-3.5-1.3-3.6 0-6 2.5-6 6.4 0 4 2.4 6.5 6.1 6.5Zm-2.3-6.5c0-2 1.2-3.2 3-3.2 1.7 0 2.9 1.3 2.9 3.2 0 2-1.2 3.2-3 3.2-1.7 0-2.9-1.2-2.9-3.2Zm32.7 3.3v-6.6c0-.4.1-.7.3-1 .2-.4.4-.6.7-.8.4-.2.7-.3 1.2-.3.3 0 .6 0 .8.2.3 0 .5.3.7.5l-.7.7a1 1 0 0 0-.4-.3 1 1 0 0 0-.4 0 1 1 0 0 0-.8.2c-.2.2-.3.5-.3.8V21h-1Zm-1.4-4.7v-1h4.3v1h-4.3Zm7.7 4.8a3 3 0 0 1-3-3 3 3 0 0 1 4.5-2.6 2.9 2.9 0 0 1 1.4 2.6c0 .6 0 1.1-.4 1.6A3 3 0 0 1 187 21Zm0-1a1.8 1.8 0 0 0 1.6-1l.2-1a2 2 0 0 0-.9-1.6c-.3-.2-.6-.3-1-.3a1.8 1.8 0 0 0-1.8 2c0 .3 0 .6.2 1a1.8 1.8 0 0 0 1.7.9Zm4.1.9v-5.7h1.1V21h-1Zm1.1-3.3-.4-.1c0-.8.2-1.3.5-1.8a2 2 0 0 1 1.5-.6l.8.1.6.5-.7.8a1 1 0 0 0-.4-.3l-.5-.1c-.4 0-.7.1-1 .4-.2.2-.4.6-.4 1.1Zm6.7 3.3v-8.3h.8l.3 1.3v7h-1.1Zm5.7 0-5-6.8v-1.5l5.2 6.8-.2 1.5Zm0 0-.3-1.2v-7.1h1.1V21h-.8Zm5.2.1a3 3 0 0 1-3-3c0-.5.2-1 .4-1.5a3 3 0 0 1 2.6-1.4c.5 0 1 .1 1.4.3l1 1a3 3 0 0 1 .2 2h-4.8v-.8h4.2l-.4.3c0-.4 0-.7-.2-1-.1-.2-.3-.5-.6-.6l-.9-.2a2 2 0 0 0-1 .2l-.6.7-.2 1c0 .4 0 .8.2 1 .2.4.4.6.7.8l1 .2c.4 0 .6 0 1-.2.2 0 .4-.2.6-.5l.7.7c-.3.4-.6.6-1 .8l-1.3.2Zm5.6 0-.9-.1c-.3 0-.5-.2-.8-.4l-.6-.5.7-.7.7.6 1 .1.7-.1c.2-.2.3-.3.3-.5s0-.4-.2-.5l-.6-.3-.7-.2-.8-.3-.5-.5c-.2-.2-.3-.5-.3-.8 0-.4.1-.7.3-1l.7-.5c.3-.2.7-.2 1-.2.5 0 1 0 1.3.2l.8.7-.7.7a1 1 0 0 0-.6-.5l-.7-.1-.8.1-.2.5c0 .2 0 .3.2.4l.6.3a68.2 68.2 0 0 1 1.5.5l.5.5c.2.2.2.5.2.9 0 .5-.2 1-.5 1.3-.4.3-1 .4-1.6.4Zm4.2-.1v-8h1.1v8h-1Zm-1.4-4.7v-1h4v1h-4Zm6.7 4.8c-.5 0-1 0-1.3-.3-.3-.1-.6-.4-.9-.7l.8-.8.6.6.8.1.7-.1c.2-.2.4-.3.5-.6l.2-.8v-5.8h1.1v5.7c0 .5 0 1-.3 1.4a2 2 0 0 1-1 1c-.3.2-.7.3-1.2.3Zm6.6 0c-.6 0-1.2-.1-1.7-.3l-1.2-1 .8-.9c.2.4.5.7.9.9.3.2.8.3 1.3.3a2 2 0 0 0 1.1-.4c.4-.2.5-.5.5-.8 0-.4 0-.6-.2-.8l-.6-.5-.8-.3a37.9 37.9 0 0 1-1.6-.8 2 2 0 0 1-.6-.6 2 2 0 0 1-.3-1.1 2.2 2.2 0 0 1 1.3-2c.4-.2.9-.2 1.4-.2a3.2 3.2 0 0 1 2.5 1.1l-.8.8-.8-.7-1-.2c-.4 0-.8.1-1 .3a1 1 0 0 0-.4.8c0 .3 0 .5.2.7.1.2.3.3.6.4l.8.4c.3 0 .6.2.8.3l.8.5c.3.1.5.4.6.7.2.3.2.6.2 1 0 .8-.2 1.4-.7 1.8-.5.4-1.2.6-2 .6Z" />
</svg>