<svg xmlns="http://www.w3.org/2000/svg" width="164" height="59" fill="none">
  <path fill="#1D4AFF" d="M10.9 16.8a1 1 0 0 1-1.8 0L8.2 15a1 1 0 0 1 0-.9l.9-1.7a1 1 0 0 1 1.8 0l.9 1.7v1l-1 1.7Zm0 10a1 1 0 0 1-1.8 0L8.2 25a1 1 0 0 1 0-.9l.9-1.7a1 1 0 0 1 1.8 0l.9 1.7v1l-1 1.7Z"/>
  <path fill="#F9BD2B" d="M0 23a1 1 0 0 1 1.7-.7l4.6 4.6a1 1 0 0 1-.7 1.7H1a1 1 0 0 1-1-1V23Zm0-4.8c0 .2.1.5.3.7l9.4 9.4c.2.2.4.3.7.3h5.2a1 1 0 0 0 .7-1.7L1.7 12.3A1 1 0 0 0 0 13v5.2Zm0-10c0 .2.1.5.3.7l19.4 19.4c.2.2.4.3.7.3h5.2a1 1 0 0 0 .7-1.7L1.7 2.3A1 1 0 0 0 0 3v5.2Zm10 0c0 .2.1.5.3.7l18 18a1 1 0 0 0 1.7-.7V21a1 1 0 0 0-.3-.7l-18-18A1 1 0 0 0 10 3v5.2Zm11.7-6A1 1 0 0 0 20 3v5.2c0 .2.1.5.3.7l8 8a1 1 0 0 0 1.7-.7V11a1 1 0 0 0-.3-.7l-8-8Z"/>
  <path fill="#000" d="m42.5 23.1-9.4-9.4a1 1 0 0 0-1.7.7v13.2c0 .5.5 1 1 1H47c.5 0 1-.5 1-1v-1.2c0-.6-.5-1-1-1-1.7-.3-3.3-1-4.5-2.3Zm-6.3 2.3a1.6 1.6 0 1 1 0-3.2 1.6 1.6 0 0 1 0 3.2Z"/>
  <path fill="#1D4AFF" d="M0 27.6c0 .5.4 1 1 1h4.6a1 1 0 0 0 .7-1.7l-4.6-4.6A1 1 0 0 0 0 23v4.6Zm10-17L1.7 2.3A1 1 0 0 0 0 3v5.2c0 .2.1.5.3.7l9.7 9.7v-8Zm-8.3 1.7A1 1 0 0 0 0 13v5.2c0 .2.1.5.3.7l9.7 9.7v-8l-8.3-8.3Z"/>
  <path fill="#F54E00" d="M20 11a1 1 0 0 0-.3-.7l-8-8A1 1 0 0 0 10 3v5.2c0 .2.1.5.3.7l9.7 9.7V11ZM10 28.6h5.6a1 1 0 0 0 .7-1.7L10 20.6v8Zm0-18v7.6c0 .2.1.5.3.7l9.7 9.7V21a1 1 0 0 0-.3-.7L10 10.6Z"/>
  <path fill="#000" d="M59.6 24.6h4.2v-6.8h3.4c3.8 0 6.2-2.3 6.2-5.7 0-3.5-2.4-5.7-6.2-5.7h-7.6v18.2Zm4.2-10.3V9.9h3c1.5 0 2.5.8 2.5 2.2 0 1.3-1 2.2-2.5 2.2h-3Zm17 10.5c4 0 7-2.9 7-6.8s-3-6.7-7-6.7-7 2.8-7 6.7c0 4 3 6.8 7 6.8ZM77.7 18c0-2 1.2-3.5 3.1-3.5 1.9 0 3.1 1.5 3.1 3.5 0 2.1-1.2 3.5-3 3.5-2 0-3.2-1.4-3.2-3.5Zm16.6 6.8c3 0 5.1-2 5.1-4.2 0-5.3-7-3.6-7-5.7 0-.5.6-.9 1.5-.9.8 0 2 .6 2.2 1.7l3.1-1.2c-.6-2-2.8-3.2-5.5-3.2-2.9 0-4.7 1.7-4.7 3.7 0 5 7 3.6 7 5.7 0 .7-.7 1.2-1.7 1.2-1.5 0-2.5-1-2.8-2.2l-3 1.2a6 6 0 0 0 5.8 3.9Zm15-.3-.2-3.3-1.5.3c-1 0-1.6-.7-1.6-1.9v-5h3.2v-3.1H106V7.7h-3.8v3.8h-2v3.2h2V20c0 3.2 2.2 4.7 5 4.7.8 0 1.5-.1 2.1-.3Zm13.4-18.1v7h-7.3v-7h-4v18.2h4V17h7.3v7.6h4V6.4h-4Zm13.2 18.4c4 0 7-2.9 7-6.8s-3-6.7-7-6.7-7 2.8-7 6.7c0 4 3 6.8 7 6.8Zm-3.1-6.8c0-2 1.2-3.5 3.1-3.5 1.9 0 3.1 1.5 3.1 3.5 0 2.1-1.2 3.5-3 3.5-2 0-3.2-1.4-3.2-3.5Zm17.4 6.2c1.4 0 2.7-.5 3.4-1.4v1.3c0 1.4-1.2 2.4-3 2.4-1.3 0-2.4-.6-2.6-1.7l-3.4.6c.4 2.5 3 4.1 6 4.1 4 0 6.7-2.3 6.7-5.8V11.5h-3.7v1.1c-.7-.8-2-1.3-3.5-1.3-3.6 0-6 2.5-6 6.4 0 4 2.4 6.5 6.1 6.5Zm-2.3-6.5c0-2 1.2-3.2 3-3.2 1.7 0 2.9 1.3 2.9 3.2 0 2-1.2 3.2-3 3.2-1.7 0-2.9-1.2-2.9-3.2ZM39.1 50.8v-9.6c0-.7.2-1.2.4-1.7a3 3 0 0 1 1.2-1c.5-.4 1-.5 1.7-.5.5 0 1 0 1.3.2l1 .8-1.1 1-.5-.4-.7-.1c-.5 0-1 .1-1.2.4-.3.3-.5.7-.5 1.3v9.6h-1.6Zm-2.1-7v-1.4h6.5V44H37ZM48.5 51a4.5 4.5 0 0 1-3.8-2.2 4 4 0 0 1-.6-2.2c0-.8.2-1.6.6-2.2a4.4 4.4 0 0 1 3.8-2.2c.9 0 1.6.2 2.3.6a4.3 4.3 0 0 1 2.2 3.8 4.3 4.3 0 0 1-2.2 3.8c-.7.4-1.4.6-2.3.6Zm0-1.5c.6 0 1-.2 1.5-.4l1-1c.2-.5.4-1 .4-1.5A2.8 2.8 0 0 0 50 44c-.4-.2-1-.3-1.5-.3a2.8 2.8 0 0 0-2.4 1.3c-.2.5-.4 1-.4 1.5s.2 1 .4 1.5a2.7 2.7 0 0 0 2.4 1.4Zm6.4 1.3v-8.4h1.6v8.4h-1.6Zm1.6-4.8-.6-.2c0-1.1.2-2 .7-2.6.5-.6 1.3-1 2.2-1 .5 0 .9.1 1.2.3.4.1.7.3 1 .7l-1 1-.7-.3-.7-.2a2 2 0 0 0-1.5.6c-.4.4-.6 1-.6 1.7Zm10 4.8V38.5h1.2l.5 2v10.3h-1.7Zm8.7 0-7.7-10 .2-2.3 7.7 10-.2 2.3Zm0 0-.5-1.8V38.5h1.7v12.3h-1.2Zm7.8.2a4.6 4.6 0 0 1-3.9-2.1c-.4-.7-.6-1.5-.6-2.3a4.3 4.3 0 0 1 2.2-3.8 4 4 0 0 1 2.2-.6 4 4 0 0 1 2.1.6 4 4 0 0 1 1.5 1.4 4.3 4.3 0 0 1 .4 3h-7.3V46H86l-.6.5c0-.6 0-1-.3-1.4l-.8-1c-.4-.2-.9-.3-1.4-.3a3 3 0 0 0-1.5.4c-.4.2-.7.5-1 1-.2.4-.3.9-.3 1.5 0 .5.1 1 .4 1.5.2.4.6.8 1 1 .5.3 1 .4 1.5.4s1 0 1.4-.3c.4-.1.7-.4 1-.7l1 1a4 4 0 0 1-1.5 1.1c-.5.3-1.2.4-1.9.4Zm8.5 0c-.5 0-1 0-1.4-.2a4.2 4.2 0 0 1-2.1-1.4l1-1 1.1.9c.4.2 1 .2 1.4.2.5 0 1 0 1.2-.2.3-.2.4-.4.4-.7 0-.3-.1-.6-.3-.7-.3-.2-.5-.4-.9-.5l-1.1-.3a7 7 0 0 1-1.1-.4c-.4-.2-.7-.5-.9-.8a2 2 0 0 1-.3-1.2c0-.5.1-1 .4-1.3.2-.4.6-.7 1-.9a4 4 0 0 1 1.7-.3c.6 0 1.2.2 1.8.4.5.2 1 .6 1.3 1l-1 1-1-.7-1.2-.2a2 2 0 0 0-1 .2c-.3.2-.4.4-.4.7 0 .3 0 .5.3.6l.8.4a106.7 106.7 0 0 1 2.3.8l.8.8a2.3 2.3 0 0 1-.5 3.1c-.6.5-1.3.7-2.3.7Zm6.3-.2v-12h1.6v12h-1.6Zm-2.1-7v-1.4h5.9V44h-6Zm10.1 7.2c-.8 0-1.4-.1-2-.4-.5-.3-1-.7-1.3-1.1l1.2-1.1a2.4 2.4 0 0 0 2 1c.4 0 .8 0 1.1-.3.3-.1.6-.4.8-.7.2-.4.3-.8.3-1.3v-8.6h1.7V47c0 .8-.2 1.5-.5 2.1-.4.6-.8 1-1.4 1.4-.6.3-1.2.5-2 .5Zm9.9 0c-1 0-1.8-.2-2.5-.5a7 7 0 0 1-1.9-1.6l1.2-1.1c.4.5.9 1 1.4 1.2.5.3 1.1.4 1.9.4a3 3 0 0 0 1.8-.4c.5-.4.7-.8.7-1.3s-.1-.9-.3-1.2l-1-.7-1.1-.4a59.8 59.8 0 0 1-2.5-1.2 3 3 0 0 1-1-1l-.2-1.5a3 3 0 0 1 1.9-3c.6-.2 1.3-.3 2-.3A5 5 0 0 1 120 40l-1.1 1a4 4 0 0 0-1.3-.9c-.4-.2-.9-.3-1.4-.3-.7 0-1.2.2-1.6.5-.4.2-.6.6-.6 1.2 0 .4 0 .7.3 1l.9.6 1.2.5 1.3.5 1.2.7c.4.2.6.6.9 1 .2.4.3 1 .3 1.6a3 3 0 0 1-1.2 2.6c-.7.6-1.8.9-3 .9Z"/>
</svg>